<svg xmlns="http://www.w3.org/2000/svg" xmlns:xlink="http://www.w3.org/1999/xlink" width="500" zoomAndPan="magnify" viewBox="0 0 375 374.999991" height="500" preserveAspectRatio="xMidYMid meet" version="1.0"><defs><g/><clipPath id="b4d6c6e150"><path d="M 124 101 L 264 101 L 264 222.90625 L 124 222.90625 Z M 124 101 " clip-rule="nonzero"/></clipPath><clipPath id="16016b4e2c"><path d="M 321 222 L 322 222 L 322 222.90625 L 321 222.90625 Z M 321 222 " clip-rule="nonzero"/></clipPath><clipPath id="6f88ca9821"><path d="M 320 222 L 322 222 L 322 222.90625 L 320 222.90625 Z M 320 222 " clip-rule="nonzero"/></clipPath><clipPath id="804677f59f"><path d="M 230 131 L 322 131 L 322 222.90625 L 230 222.90625 Z M 230 131 " clip-rule="nonzero"/></clipPath><clipPath id="c0bddcb19a"><path d="M 53 101 L 193 101 L 193 222.90625 L 53 222.90625 Z M 53 101 " clip-rule="nonzero"/></clipPath><clipPath id="d9ce620d17"><path d="M 53 222 L 54 222 L 54 222.90625 L 53 222.90625 Z M 53 222 " clip-rule="nonzero"/></clipPath><clipPath id="8ecd1e3936"><path d="M 54 222 L 55 222 L 55 222.90625 L 54 222.90625 Z M 54 222 " clip-rule="nonzero"/></clipPath></defs><g clip-path="url(#b4d6c6e150)"><path fill="#84cda1" d="M 208.382812 101.398438 C 209.0625 100.382812 125.304688 221.996094 124.628906 222.941406 L 179.453125 222.941406 C 179.453125 222.941406 262.53125 102.34375 263.207031 101.398438 Z M 208.382812 101.398438 " fill-opacity="1" fill-rule="nonzero"/></g><g clip-path="url(#16016b4e2c)"><path fill="#000000" d="M 321.277344 222.875 C 321.277344 222.875 321.34375 222.941406 321.34375 222.941406 C 321.34375 223.011719 321.34375 222.941406 321.277344 222.875 Z M 321.277344 222.875 " fill-opacity="1" fill-rule="nonzero"/></g><g clip-path="url(#6f88ca9821)"><path fill="#000000" d="M 320.9375 222.402344 C 321.074219 222.539062 321.140625 222.671875 321.207031 222.738281 C 321.140625 222.671875 321.003906 222.539062 320.9375 222.402344 Z M 320.9375 222.402344 " fill-opacity="1" fill-rule="nonzero"/></g><g clip-path="url(#804677f59f)"><path fill="#4e4e4e" d="M 321.277344 222.875 C 321.277344 222.875 321.207031 222.808594 321.207031 222.808594 C 320.9375 222.46875 320.804688 222.199219 320.667969 221.996094 C 320.734375 222.132812 320.871094 222.265625 320.9375 222.402344 C 320.871094 222.265625 320.734375 222.0625 320.53125 221.863281 C 320.464844 221.792969 320.464844 221.726562 320.398438 221.660156 C 317.289062 217.128906 304.242188 198.132812 258.410156 131.546875 L 231.03125 171.296875 C 228.730469 167.917969 265.84375 221.863281 266.519531 222.875 L 321.34375 222.875 C 321.277344 222.941406 321.277344 222.875 321.277344 222.875 Z M 320.328125 221.589844 C 320.261719 221.457031 320.261719 221.457031 320.328125 221.589844 Z M 320.328125 221.589844 " fill-opacity="1" fill-rule="nonzero"/></g><g clip-path="url(#c0bddcb19a)"><path fill="#84cda1" d="M 192.226562 101.398438 L 137.40625 101.398438 C 77.105469 188.941406 59.460938 214.5625 55 221.050781 C 55 221.117188 54.867188 221.253906 54.59375 221.660156 C 54.59375 221.660156 54.59375 221.589844 54.664062 221.589844 C 54.527344 221.792969 54.390625 221.929688 54.324219 222.0625 C 54.324219 221.996094 54.394531 221.996094 54.394531 221.929688 C 54.257812 222.132812 54.054688 222.402344 53.851562 222.738281 C 53.917969 222.605469 54.054688 222.46875 54.121094 222.335938 C 53.988281 222.605469 53.851562 222.738281 53.785156 222.808594 C 53.714844 222.875 53.714844 222.875 53.714844 222.941406 C 53.714844 222.941406 53.714844 222.875 53.785156 222.875 C 53.785156 222.875 53.785156 222.941406 53.714844 222.941406 L 108.539062 222.941406 C 108.472656 222.941406 191.550781 102.34375 192.226562 101.398438 Z M 192.226562 101.398438 " fill-opacity="1" fill-rule="nonzero"/></g><g clip-path="url(#d9ce620d17)"><path fill="#84cda1" d="M 53.714844 222.941406 C 53.648438 223.011719 53.648438 223.011719 53.714844 222.941406 Z M 53.714844 222.941406 " fill-opacity="1" fill-rule="nonzero"/></g><g clip-path="url(#8ecd1e3936)"><path fill="#84cda1" d="M 54.121094 222.335938 C 54.191406 222.265625 54.257812 222.199219 54.324219 222.0625 C 54.257812 222.132812 54.191406 222.199219 54.121094 222.335938 Z M 54.121094 222.335938 " fill-opacity="1" fill-rule="nonzero"/></g><path fill="#84cda1" d="M 54.664062 221.589844 C 54.796875 221.457031 54.933594 221.253906 55.070312 221.050781 C 55.070312 220.984375 54.867188 221.183594 54.664062 221.589844 Z M 54.664062 221.589844 " fill-opacity="1" fill-rule="nonzero"/><path stroke-linecap="butt" transform="matrix(0.890969, 0, 0, 0.890969, -30.617812, 228.035479)" fill="none" stroke-linejoin="miter" d="M 76.04147 36.998488 L 93.828451 6.865404 L 111.606664 36.998488 Z M 141.446002 22.955673 L 141.446002 37.037947 L 127.372497 37.037947 L 127.372497 22.955673 L 121.537034 22.955673 L 121.537034 8.84271 L 146.91757 8.84271 L 146.91757 22.955673 Z M 159.351359 36.998488 L 159.272442 7.751027 L 173.345947 18.417954 L 187.42822 7.751027 L 187.507137 36.998488 Z M 240.925076 22.876756 L 255.805287 22.876756 C 255.805287 24.946131 255.423856 26.879594 254.656608 28.681529 C 253.89813 30.474695 252.832752 32.057417 251.46486 33.425309 C 250.096968 34.788816 248.514247 35.84981 246.712312 36.617057 C 244.919146 37.384304 242.990067 37.765735 240.925076 37.765735 C 238.860086 37.765735 236.926623 37.384304 235.133456 36.617057 C 233.34029 35.84981 231.757569 34.788816 230.389677 33.425309 C 229.021785 32.057417 227.952023 30.474695 227.184776 28.681529 C 226.421913 26.879594 226.036097 24.946131 226.036097 22.876756 C 226.036097 21.030979 226.351765 19.281655 226.978715 17.63317 C 227.614434 15.9803 228.495673 14.498417 229.62243 13.183136 C 230.749187 11.867856 232.073236 10.771788 233.598962 9.903703 C 235.133456 9.031233 236.781942 8.448125 238.548802 8.154379 C 240.214825 7.886939 241.898384 7.904476 243.599481 8.211375 C 245.300577 8.518274 246.892067 9.101382 248.37395 9.960698 Z M 281.426958 8.84271 C 283.014063 8.84271 284.495946 9.136456 285.876991 9.723948 C 287.258036 10.315824 288.476863 11.131298 289.529088 12.179139 C 290.590081 13.226979 291.418708 14.45019 292.0062 15.844388 C 292.593692 17.234201 292.891823 18.720469 292.891823 20.30319 C 292.891823 22.13143 292.492854 23.823758 291.703685 25.380174 C 290.914517 26.932206 289.853524 28.234334 288.507553 29.282174 L 292.655072 37.037947 L 267.914639 37.037947 C 267.914639 33.583142 267.914639 30.755289 267.914639 28.554385 C 267.914639 26.353482 267.914639 24.630464 267.914639 23.385332 C 267.914639 22.135815 267.914639 21.228271 267.914639 20.667084 C 267.914639 20.101514 267.914639 19.742004 267.914639 19.58417 C 267.914639 19.421952 267.914639 19.321114 267.914639 19.281655 C 267.914639 19.242197 267.914639 19.115053 267.914639 18.900224 C 267.914639 18.68101 267.914639 18.246968 267.914639 17.593712 C 267.914639 16.931687 267.914639 15.910152 267.914639 14.529107 C 267.914639 13.148062 267.914639 11.249674 267.914639 8.84271 Z M 319.122907 7.87817 C 321.183513 7.87817 323.116976 8.26837 324.92768 9.04877 C 326.738383 9.820402 328.338641 10.898932 329.719686 12.279977 C 331.100731 13.661022 332.179261 15.256896 332.959661 17.071983 C 333.740061 18.878303 334.130261 20.811765 334.130261 22.876756 C 334.130261 24.946131 333.740061 26.888363 332.959661 28.699066 C 332.179261 30.509769 331.100731 32.101259 329.719686 33.482304 C 328.338641 34.863349 326.738383 35.946264 324.92768 36.726664 C 323.116976 37.498295 321.183513 37.884111 319.122907 37.884111 C 317.053532 37.884111 315.1113 37.498295 313.296213 36.726664 C 311.489894 35.946264 309.89402 34.863349 308.512975 33.482304 C 307.140698 32.101259 306.062168 30.509769 305.281768 28.699066 C 304.501368 26.888363 304.115552 24.946131 304.115552 22.876756 C 304.115552 20.811765 304.501368 18.878303 305.281768 17.071983 C 306.062168 15.256896 307.140698 13.661022 308.512975 12.279977 C 309.89402 10.898932 311.489894 9.820402 313.296213 9.04877 C 315.1113 8.26837 317.053532 7.87817 319.122907 7.87817 Z M 346.14316 23.48617 L 346.14316 8.763793 L 374.312091 8.763793 L 374.312091 23.48617 C 374.312091 25.415248 373.948197 27.23472 373.220408 28.935817 C 372.501388 30.636913 371.488621 32.140718 370.186493 33.442846 C 368.884365 34.740589 367.380561 35.753356 365.679464 36.481144 C 363.973983 37.200165 362.158896 37.559675 360.225433 37.559675 C 358.296354 37.559675 356.476883 37.200165 354.775786 36.481144 C 353.07469 35.753356 351.570885 34.740589 350.268757 33.442846 C 348.971013 32.140718 347.958247 30.636913 347.230458 28.935817 C 346.507054 27.23472 346.14316 25.415248 346.14316 23.48617 Z M 400.411647 8.84271 C 401.994368 8.84271 403.476251 9.136456 404.857296 9.723948 C 406.242725 10.315824 407.457168 11.131298 408.513777 12.179139 C 409.57477 13.226979 410.403397 14.441422 411.008426 15.822467 C 411.609071 17.199127 411.911586 18.68101 411.911586 20.263732 C 411.911586 21.820147 411.61784 23.293262 411.025963 24.674307 C 410.438471 26.055352 409.618613 27.269794 408.570773 28.317635 C 407.531701 29.356707 406.326027 30.172181 404.958134 30.764057 C 403.590242 31.351549 402.112744 31.645295 400.525638 31.645295 L 400.525638 36.998488 L 386.934403 36.998488 L 386.934403 8.84271 Z M 400.411647 8.84271 " stroke="#84cda1" stroke-width="5.281001" stroke-opacity="1" stroke-miterlimit="4"/><g fill="#4e4e4e" fill-opacity="1"><g transform="translate(38.139969, 261.001347)"><g><path d="M -1 0 L 14.84375 -26.84375 L 30.6875 0 Z M -1 0 "/></g></g></g><g fill="#4e4e4e" fill-opacity="1"><g transform="translate(76.951916, 261.001347)"><g><path d="M 18.453125 -12.515625 L 18.453125 0.03125 L 5.921875 0.03125 L 5.921875 -12.515625 L 0.71875 -12.515625 L 0.71875 -25.09375 L 23.328125 -25.09375 L 23.328125 -12.515625 Z M 18.453125 -12.515625 "/></g></g></g><g fill="#4e4e4e" fill-opacity="1"><g transform="translate(110.281293, 261.001347)"><g><path d="M 1.078125 0 L 1 -26.0625 L 13.546875 -16.5625 L 26.09375 -26.0625 L 26.171875 0 Z M 1.078125 0 "/></g></g></g><g fill="#4e4e4e" fill-opacity="1"><g transform="translate(170.3108, 261.001347)"><g><path d="M 13.734375 -12.578125 L 26.984375 -12.578125 C 26.984375 -10.742188 26.644531 -9.023438 25.96875 -7.421875 C 25.289062 -5.816406 24.34375 -4.40625 23.125 -3.1875 C 21.90625 -1.96875 20.492188 -1.015625 18.890625 -0.328125 C 17.285156 0.347656 15.566406 0.6875 13.734375 0.6875 C 11.890625 0.6875 10.164062 0.347656 8.5625 -0.328125 C 6.96875 -1.015625 5.5625 -1.96875 4.34375 -3.1875 C 3.125 -4.40625 2.171875 -5.816406 1.484375 -7.421875 C 0.804688 -9.023438 0.46875 -10.742188 0.46875 -12.578125 C 0.46875 -14.222656 0.75 -15.78125 1.3125 -17.25 C 1.875 -18.726562 2.65625 -20.050781 3.65625 -21.21875 C 4.65625 -22.382812 5.835938 -23.359375 7.203125 -24.140625 C 8.566406 -24.921875 10.035156 -25.441406 11.609375 -25.703125 C 13.085938 -25.941406 14.585938 -25.921875 16.109375 -25.640625 C 17.628906 -25.367188 19.046875 -24.851562 20.359375 -24.09375 Z M 13.734375 -12.578125 "/></g></g></g><g fill="#4e4e4e" fill-opacity="1"><g transform="translate(207.00854, 261.001347)"><g><path d="M 13.125 -25.09375 C 14.53125 -25.09375 15.847656 -24.828125 17.078125 -24.296875 C 18.304688 -23.773438 19.390625 -23.046875 20.328125 -22.109375 C 21.273438 -21.179688 22.007812 -20.09375 22.53125 -18.84375 C 23.0625 -17.601562 23.328125 -16.28125 23.328125 -14.875 C 23.328125 -13.25 22.972656 -11.742188 22.265625 -10.359375 C 21.566406 -8.972656 20.617188 -7.8125 19.421875 -6.875 L 23.125 0.03125 L 1.078125 0.03125 C 1.078125 -3.050781 1.078125 -5.570312 1.078125 -7.53125 C 1.078125 -9.488281 1.078125 -11.019531 1.078125 -12.125 C 1.078125 -13.238281 1.078125 -14.046875 1.078125 -14.546875 C 1.078125 -15.054688 1.078125 -15.378906 1.078125 -15.515625 C 1.078125 -15.660156 1.078125 -15.75 1.078125 -15.78125 C 1.078125 -15.820312 1.078125 -15.9375 1.078125 -16.125 C 1.078125 -16.320312 1.078125 -16.710938 1.078125 -17.296875 C 1.078125 -17.878906 1.078125 -18.785156 1.078125 -20.015625 C 1.078125 -21.242188 1.078125 -22.9375 1.078125 -25.09375 Z M 13.125 -25.09375 "/></g></g></g><g fill="#4e4e4e" fill-opacity="1"><g transform="translate(239.979575, 261.001347)"><g><path d="M 13.734375 -25.953125 C 15.566406 -25.953125 17.289062 -25.601562 18.90625 -24.90625 C 20.519531 -24.21875 21.941406 -23.257812 23.171875 -22.03125 C 24.398438 -20.800781 25.359375 -19.378906 26.046875 -17.765625 C 26.742188 -16.148438 27.09375 -14.421875 27.09375 -12.578125 C 27.09375 -10.742188 26.742188 -9.019531 26.046875 -7.40625 C 25.359375 -5.789062 24.398438 -4.367188 23.171875 -3.140625 C 21.941406 -1.910156 20.519531 -0.945312 18.90625 -0.25 C 17.289062 0.4375 15.566406 0.78125 13.734375 0.78125 C 11.890625 0.78125 10.160156 0.4375 8.546875 -0.25 C 6.929688 -0.945312 5.507812 -1.910156 4.28125 -3.140625 C 3.050781 -4.367188 2.085938 -5.789062 1.390625 -7.40625 C 0.703125 -9.019531 0.359375 -10.742188 0.359375 -12.578125 C 0.359375 -14.421875 0.703125 -16.148438 1.390625 -17.765625 C 2.085938 -19.378906 3.050781 -20.800781 4.28125 -22.03125 C 5.507812 -23.257812 6.929688 -24.21875 8.546875 -24.90625 C 10.160156 -25.601562 11.890625 -25.953125 13.734375 -25.953125 Z M 13.734375 -25.953125 "/></g></g></g><g fill="#4e4e4e" fill-opacity="1"><g transform="translate(276.856499, 261.001347)"><g><path d="M 0.9375 -12.046875 L 0.9375 -25.15625 L 26.015625 -25.15625 L 26.015625 -12.046875 C 26.015625 -10.328125 25.691406 -8.707031 25.046875 -7.1875 C 24.410156 -5.664062 23.507812 -4.328125 22.34375 -3.171875 C 21.1875 -2.015625 19.847656 -1.113281 18.328125 -0.46875 C 16.816406 0.175781 15.203125 0.5 13.484375 0.5 C 11.753906 0.5 10.128906 0.175781 8.609375 -0.46875 C 7.097656 -1.113281 5.765625 -2.015625 4.609375 -3.171875 C 3.453125 -4.328125 2.550781 -5.664062 1.90625 -7.1875 C 1.257812 -8.707031 0.9375 -10.328125 0.9375 -12.046875 Z M 0.9375 -12.046875 "/></g></g></g><g fill="#4e4e4e" fill-opacity="1"><g transform="translate(313.052594, 261.001347)"><g><path d="M 13.078125 -25.09375 C 14.492188 -25.09375 15.816406 -24.828125 17.046875 -24.296875 C 18.273438 -23.773438 19.359375 -23.046875 20.296875 -22.109375 C 21.242188 -21.179688 21.984375 -20.101562 22.515625 -18.875 C 23.054688 -17.644531 23.328125 -16.320312 23.328125 -14.90625 C 23.328125 -13.519531 23.0625 -12.210938 22.53125 -10.984375 C 22.007812 -9.753906 21.285156 -8.671875 20.359375 -7.734375 C 19.429688 -6.804688 18.359375 -6.078125 17.140625 -5.546875 C 15.921875 -5.023438 14.601562 -4.765625 13.1875 -4.765625 L 13.1875 0 L 1.078125 0 L 1.078125 -25.09375 Z M 13.078125 -25.09375 "/></g></g></g></svg>